<svg width="352" height="150" viewBox="0 0 352 150" xmlns="http://www.w3.org/2000/svg"><title>coach-mark</title><g transform="translate(3 1)" fill="none" fill-rule="evenodd"><path d="M15.5 34.238L-1.408 20.5H15.5V6A6.5 6.5 0 0 1 22-.5h320a6.5 6.5 0 0 1 6.5 6.5v136a6.5 6.5 0 0 1-6.5 6.5H22a6.5 6.5 0 0 1-6.5-6.5V34.238z" stroke="#E3E5E8" fill="#FFF" stroke-linecap="round"/><path d="M21 0h322a5 5 0 0 1 5 5v1H16V5a5 5 0 0 1 5-5z" fill="#3A81C2"/><rect stroke="#DEE0E3" stroke-width="4" x="40" y="27" width="117" height="1" rx=".5"/><rect stroke="#DEE0E3" stroke-width="4" x="40" y="72" width="284" height="1" rx=".5"/><rect stroke="#DEE0E3" stroke-width="4" x="40" y="95" width="284" height="1" rx=".5"/><rect stroke="#DEE0E3" stroke-width="4" x="40" y="118" width="204" height="1" rx=".5"/><g transform="translate(322 21)" stroke="#D9DCDF" stroke-linecap="square" stroke-width="2"><path d="M0 0l10 10"/><path d="M0 10L10 0"/></g></g></svg>